# xmcd
#
# Track frame offsets: 
#        150
#        18142
#        30300
#        53325
#        74108
#        90109
#        118712
#        146238
#        169808
#        192456
#        215721
#        233341
#        250840
#        284632
#        301709
#        321845
#        338623
#
# Disc length: 4764 seconds
#
# Revision: 1
# Processed by: cddbd v1.5.2PL0 Copyright (c) Steve Scherf et al.
# Submitted via: ExactAudioCopy v0.95b4
#
DISCID=e8129a11
DTITLE=Various Artist - Mellomania Step 06 CD2 live mixed by DJ Shah
DYEAR=2006
DGENRE=Trance
TTITLE0=Brian Laruso - Seminyak
TTITLE1=Deepsky feat. Jes - Ghost
TTITLE2=Interstate - Remember Me (Shawn Mitiska and Tyler Miclaud Remix)
TTITLE3=Soldout vs. Nova - Maybe Tomorrow (Afrikamama Remix)
TTITLE4=DJ Fire - Summermorning
TTITLE5=Sunsea - Light the Fire (Balearic Session Remix)
TTITLE6=Armin van Buuren - Who's Watching (Remy Remix)
TTITLE7=Shah and Laruso pres. Global Experience - Zanzibar
TTITLE8=Shane 54 - 1000 Lullabies
TTITLE9=LNQ - Tired
TTITLE10=Airbase - Escape
TTITLE11=Gareth Emery - Between Dreams
TTITLE12=Steven Liquid - The Longest Way
TTITLE13=North Dakota - Reflection (Magic Wave Remix)
TTITLE14=Magic Wave - Escape From Absolom (DJ Shah's Intro Mix)
TTITLE15=DJ Spoke - Fall To Pieces
TTITLE16=Tiest pres. Allure - The Love We Lost
EXTD=
EXTT0=
EXTT1=
EXTT2=
EXTT3=
EXTT4=
EXTT5=
EXTT6=
EXTT7=
EXTT8=
EXTT9=
EXTT10=
EXTT11=
EXTT12=
EXTT13=
EXTT14=
EXTT15=
EXTT16=
PLAYORDER=
